<svg xmlns="http://www.w3.org/2000/svg" width="800" height="480" viewBox="0 0 211.66666 127">
  <g style="fill:none;fill-rule:evenodd;stroke:none;stroke-width:1">
    <g stroke-width="4.98988">
      <path d="M77.87041996 22.38995245c5.09747225 0 9.22971497-4.22016288 9.22971497-9.42609187 0-5.20592923-4.13224272-9.42662278-9.22971497-9.42662278-5.09747224 0-9.22971496 4.22069355-9.22971496 9.42662278 0 5.205929 4.13224272 9.42609187 9.22971496 9.42609187Zm27.96301684-.00021232c5.09747225 0 9.22971496-4.22016288 9.22971496-9.42609186 0-5.20592924-4.13224271-9.4266228-9.22971496-9.4266228-5.09747224 0-9.22971496 4.22069356-9.22971496 9.4266228 0 5.20592898 4.13224272 9.42609186 9.22971496 9.42609186z" stroke="#0ea"/>
      <path d="M133.79624406 22.38974013c5.09747225 0 9.22971497-4.22016288 9.22971497-9.42609186 0-5.20592924-4.13224272-9.4266228-9.22971497-9.4266228-5.09747224 0-9.22971496 4.22069356-9.22971496 9.4266228 0 5.20592898 4.13224272 9.42609186 9.22971496 9.42609186zM77.8705759 78.3854078c5.09747224 0 9.22971496-4.22016187 9.22971496-9.42609161s-4.13224272-9.42662304-9.22971496-9.42662304c-5.09747225 0-9.22971497 4.2206933-9.22971497 9.42662304 0 5.20592974 4.13224272 9.42609161 9.22971497 9.42609161z" stroke="#0ae"/>
      <path d="M77.87041996 49.83428145c5.09747225 0 9.22971497-4.22016188 9.22971497-9.42609162 0-5.20592973-4.13224272-9.42662303-9.22971497-9.42662303-5.09747224 0-9.22971496 4.2206933-9.22971496 9.42662303 0 5.20592974 4.13224272 9.42609162 9.22971496 9.42609162zm55.9258241 28.55112635c5.09747225 0 9.22971497-4.22016187 9.22971497-9.42609161s-4.13224272-9.42662304-9.22971497-9.42662304c-5.09747224 0-9.22971496 4.2206933-9.22971496 9.42662304 0 5.20592974 4.13224272 9.42609161 9.22971496 9.42609161zM105.8334368 50.38757409c5.09747225 0 9.22971496-4.22016188 9.22971496-9.42609161 0-5.20592974-4.13224271-9.42662304-9.22971496-9.42662304-5.09747224 0-9.22971496 4.2206933-9.22971496 9.42662304 0 5.20592973 4.13224272 9.4260916 9.22971496 9.4260916zm0 27.99783371c5.09747225 0 9.22971496-4.22016187 9.22971496-9.42609161s-4.13224271-9.42662304-9.22971496-9.42662304c-5.09747224 0-9.22971496 4.2206933-9.22971496 9.42662304 0 5.20592974 4.13224272 9.42609161 9.22971496 9.42609161zm27.96280726-27.99783371c5.09747225 0 9.22971497-4.22016188 9.22971497-9.42609161 0-5.20592974-4.13224272-9.42662304-9.22971497-9.42662304-5.09747224 0-9.22971496 4.2206933-9.22971496 9.42662304 0 5.20592973 4.13224272 9.4260916 9.22971496 9.4260916z" stroke="#0ea"/>
    </g>
    <path fill="#0ea" d="M86.105278 11.0220548h9.979756v4.989878h-9.979756zm0 27.444329h9.979756v4.989878h-9.979756zm27.444329 0h9.979756v4.989878h-9.979756zm0 27.444329h9.979756v4.989878h-9.979756zm22.454451-14.969634v9.979756h-4.989878v-9.979756zM81.1154 21.0018108v9.979756h-4.989878v-9.979756z"/>
  </g>
  <g aria-label="SmartDigits" style="font-style:normal;font-variant:normal;font-weight:400;font-stretch:normal;font-size:42.3962px;line-height:1.25;font-family:'Telefonica Web';-inkscape-font-specification:'Telefonica Web, Normal';font-variant-ligatures:normal;font-variant-caps:normal;font-variant-numeric:normal;font-variant-east-asian:normal;fill:#000;fill-opacity:1;stroke:none;stroke-width:.441626">
    <path d="M10.056681 116.54952q-2.0774142 0-4.3668091-.38157-2.2469987-.38156-3.8580544-1.01751l.6359431-2.88294q3.985243 1.1447 7.2497505 1.1447 3.4340919 0 5.1299409-1.31428 1.568659-1.22949 1.568659-3.51889 0-1.56866-.89032-2.62856-.847924-1.05991-2.162207-1.73825-1.271886-.67834-3.5188843-1.52626-2.6709607-.97511-4.3244126-1.86543-1.6534519-.93272-2.8405455-2.543776-1.1446975-1.611055-1.1446975-4.112431 0-3.773262 2.5861683-5.765884 2.5861684-1.992621 7.0377696-1.992621 1.865433 0 3.730866.296773 1.865433.296774 3.391696.805528l-.551151 2.882942q-3.264507-.847924-6.274638-.847924-6.3594299 0-6.3594299 4.366809 0 1.399074.8055278 2.374187.8479241.975113 2.0774139 1.611056 1.2718861.635943 3.4340922 1.483867 2.755753 1.059904 4.451601 1.992624 1.738245.93271 2.925338 2.62856 1.22949 1.65345 1.22949 4.19723 0 3.73086-2.289395 5.89307-2.586168 2.45898-7.673712 2.45898zm15.218912-21.367688h2.925338l.169585 1.526263q3.391696-2.11981 6.6986-2.11981 3.858054 0 5.638695 2.331791 3.858054-2.331791 7.461731-2.331791 3.434093 0 5.214733 1.823037 1.738244 1.738244 1.738244 5.426718v14.11793h-3.518884V102.262q0-1.31428-.254378-2.11981-.211981-.847927-.763131-1.399077-1.059905-1.059905-3.264508-1.059905-1.271886 0-2.755753.381565-1.483867.33917-2.840546 1.017509.296774 1.314278.296774 2.755758v14.11793h-3.518885V102.262q0-1.31428-.254377-2.11981-.211981-.847927-.763132-1.399077-1.059905-1.059905-3.264507-1.059905-2.586169 0-5.426714 1.356678v16.916084h-3.518885zm41.666856 21.367688q-3.518885 0-5.426714-1.99262-1.653452-1.73825-1.653452-4.494 0-2.84055 1.780641-4.494 2.162206-1.99262 7.037769-1.99262h4.324413V102.262q0-1.27189-.254377-2.11981-.254377-.847927-.805528-1.399077-1.271886-1.22949-4.324413-1.22949-2.543772 0-5.596298.508754l-.127189-2.713357q3.01013-.720735 6.317034-.720735 4.451601 0 6.486619 1.907829.975113.932716 1.399075 2.289395.423962 1.314281.423962 3.349301v13.82116h-2.840546l-.211981-1.39907q-3.052526 1.99262-6.529015 1.99262zm.763132-2.84055q1.22949 0 2.670961-.38156 1.44147-.38157 2.628564-.97512v-6.18984h-3.815658q-3.264508 0-4.621186 1.0599-1.144698.93272-1.144698 2.75576 0 1.86543 1.102302 2.79815 1.102301.93271 3.179715.93271zm14.705518-18.527138h2.925338l.211981 1.78064q2.840545-2.374187 5.893072-2.374187.635943 0 1.356678.127189v3.137318q-.932716-.084792-1.823036-.084792-2.79815 0-5.045148 1.399075v16.788895h-3.518885zm21.781051 21.367688q-1.52626 0-2.75575-.42396-1.18709-.38157-1.865433-1.1871-.763132-.89032-1.059905-2.03502-.254377-1.14469-.254377-3.13731V97.768h-3.773262v-1.992621l3.773262-.551151v-4.917959q1.907825-.635944 3.518885-.635944v5.511507h5.46911V97.768h-5.46911v11.53177q0 1.56866.12719 2.37418.16958.80553.59354 1.27189.72074.80553 2.67097.80553 1.52626 0 3.13731-.33917l.16959 2.58617q-2.03502.55115-4.28202.55115z" style="font-style:normal;font-variant:normal;font-weight:400;font-stretch:normal;font-size:42.3962px;font-family:'Telefonica Web';-inkscape-font-specification:'Telefonica Web, Normal';font-variant-ligatures:normal;font-variant-caps:normal;font-variant-numeric:normal;font-variant-east-asian:normal;fill:#030343;fill-opacity:1;stroke-width:.441626"/>
    <path d="M113.02049 86.956969h7.33455q4.02763 0 6.6986.847924 2.67096.847924 4.3668 2.713357 3.09493 3.391696 3.09493 10.76863 0 8.01289-3.47649 11.53177-1.56866 1.61106-4.02764 2.37419-2.41658.76313-5.85068.76313h-8.14007zm8.01288 25.988871q2.41659 0 4.02764-.50875 1.61106-.50876 2.75576-1.61106 2.79815-2.67096 2.79815-9.49675 0-6.02026-2.11981-8.606428-1.1871-1.441471-3.13732-2.077414-1.95023-.678339-5.21474-.678339h-3.3493v22.978741zm20.58269-21.706855q-2.07741 0-2.07741-2.246999v-.08479q0-2.246999 2.07741-2.246999h.21198q2.07742 0 2.07742 2.246999v.08479q0 2.246999-2.07742 2.246999zm-1.65345 3.942847h3.51889v20.774138h-3.51889zm17.53348 30.906828q-4.70597 0-6.99537-1.52626-2.28939-1.48387-2.28939-4.32441 0-1.35668.63594-2.62857.63594-1.22949 1.73824-1.99262-.97511-.80553-.97511-2.247 0-1.18709.63594-2.41658.67834-1.27189 1.82304-2.37419-1.44147-1.01751-2.2046-2.62856-.72074-1.61106-.72074-3.64608 0-3.518881 2.11981-5.596295 2.11981-2.11981 6.23224-2.11981.84793 0 2.11981.169585l2.50138-5.426714q.72074.169585 1.56866.55115.84792.381566 1.35668.805528l-2.88294 4.91796q1.82303.932716 2.75575 2.67096.93272 1.738246.93272 4.027636 0 3.51889-2.11981 5.6387-2.11981 2.07741-6.23225 2.07741-1.86543 0-3.2645-.42396-.46636.55115-.80553 1.27189-.33917.72073-.33917 1.27188 0 1.27189 1.69585 1.27189h3.98524q2.71336 0 4.36681.46636 1.65345.46636 2.67096 1.48386 1.52626 1.52627 1.52626 4.19723 0 3.22211-2.37418 4.87556-2.3318 1.65345-7.46174 1.65345zm0-18.86631q5.00276 0 5.00276-4.91796 0-4.917956-5.00276-4.917956-5.00275 0-5.00275 4.917956 0 4.91796 5.00275 4.91796zm.33917 15.89858q6.18985 0 6.18985-3.43409 0-1.52627-1.01751-2.2894-1.1447-.84792-4.23962-.84792h-4.494q-.89032 0-1.52626-.12719-1.22949 1.48387-1.22949 3.17971 0 1.73825 1.48387 2.62857 1.48386.89032 4.83316.89032zm15.08113-31.881945q-2.07742 0-2.07742-2.246999v-.08479q0-2.246999 2.07742-2.246999h.21198q2.07741 0 2.07741 2.246999v.08479q0 2.246999-2.07741 2.246999zm-1.65345 3.942847h3.51888v20.774138h-3.51888zm16.72795 21.367688q-1.52626 0-2.75575-.42396-1.1871-.38157-1.86544-1.1871-.76313-.89032-1.0599-2.03502-.25438-1.14469-.25438-3.13731V97.768h-3.77326v-1.992621l3.77326-.551151v-4.917959q1.90783-.635944 3.51889-.635944v5.511507h5.46911V97.768h-5.46911v11.53177q0 1.56866.12718 2.37418.16959.80553.59355 1.27189.72074.80553 2.67096.80553 1.52627 0 3.13732-.33917l.16959 2.58617q-2.03502.55115-4.28202.55115zm13.74631 0q-1.48386 0-3.22211-.25438-1.69585-.25438-2.88294-.63594l.16959-2.71336q1.27188.33917 2.84054.55115 1.61106.21198 2.96773.21198 2.54378 0 3.85806-.80553 1.35668-.84792 1.35668-2.45898 0-1.35667-1.1447-2.03501-1.1447-.67834-3.60368-1.44147-2.2046-.72074-3.56128-1.31429-1.31428-.63594-2.28939-1.86543-.97512-1.22949-.97512-3.22211 0-2.925339 2.03502-4.451602 2.07742-1.526263 5.51151-1.526263 1.52626 0 3.13732.254377 1.65345.254377 2.92534.635943l-.29678 2.586168q-2.96773-.678339-5.46911-.678339-4.53639 0-4.53639 2.925336 0 1.39908 1.1447 2.11981 1.18709.72074 3.64607 1.48387 2.11981.63594 3.47649 1.27189 1.39907.63594 2.33179 1.86543.97511 1.18709.97511 3.13732 0 3.17971-2.247 4.79077-2.247 1.56866-6.14745 1.56866z" style="font-style:normal;font-variant:normal;font-weight:400;font-stretch:normal;font-size:42.3962px;font-family:'Telefonica Web';-inkscape-font-specification:'Telefonica Web, Normal';font-variant-ligatures:normal;font-variant-caps:normal;font-variant-numeric:normal;font-variant-east-asian:normal;fill:#0ae;fill-opacity:1;stroke-width:.441626"/>
  </g>
</svg>
