<svg xmlns="http://www.w3.org/2000/svg" xml:space="preserve" width="1009.6568" height="274.24161">
  <defs>
    <clipPath clipPathUnits="userSpaceOnUse" id="a">
      <path d="M0 1080h1920V0H0Z"/>
    </clipPath>
  </defs>
  <g clip-path="url(#a)" transform="matrix(1.33333 0 0 -1.33333 -772.47065 871.08438)">
    <path d="M0 0c0 16.955-13.744 30.699-30.698 30.699-16.955 0-30.699-13.744-30.699-30.699 0-16.954 13.744-30.698 30.699-30.698C-13.744-30.698 0-16.954 0 0" style="fill:#06f;fill-opacity:1;fill-rule:nonzero;stroke:none" transform="translate(640.75 622.6143)"/>
    <path d="M0 0c0 16.955-13.744 30.699-30.698 30.699S-61.397 16.955-61.397 0c0-16.954 13.745-30.698 30.699-30.698S0-16.954 0 0" style="fill:#06f;fill-opacity:1;fill-rule:nonzero;stroke:none" transform="translate(712.8916 622.6143)"/>
    <path d="M0 0c0 16.955-13.745 30.699-30.699 30.699S-61.397 16.955-61.397 0c0-16.954 13.744-30.698 30.698-30.698S0-16.954 0 0" style="fill:#06f;fill-opacity:1;fill-rule:nonzero;stroke:none" transform="translate(785.0342 622.6143)"/>
    <path d="M0 0c0 16.955-13.744 30.699-30.698 30.699S-61.397 16.955-61.397 0c0-16.954 13.745-30.698 30.699-30.698S0-16.954 0 0" style="fill:#06f;fill-opacity:1;fill-rule:nonzero;stroke:none" transform="translate(712.8916 550.4727)"/>
    <path d="M0 0c0 16.954-13.744 30.698-30.698 30.698S-61.397 16.954-61.397 0s13.745-30.699 30.699-30.699S0-16.954 0 0" style="fill:#06f;fill-opacity:1;fill-rule:nonzero;stroke:none" transform="translate(712.8916 478.3311)"/>
    <path d="M0 0h-22.744v13.538h59.567V0H14.079v-62.277H0Z" style="fill:#06f;fill-opacity:1;fill-rule:nonzero;stroke:none" transform="translate(870.7725 621.8364)"/>
    <path d="M0 0c-1.191 7.041-5.849 12.457-13.538 12.457-8.232 0-12.997-5.416-14.622-12.457Zm11.914-16.245c-1.191-4.333-8.015-17.329-25.452-17.329-16.246 0-28.161 11.913-28.161 28.701 0 16.787 11.915 28.702 28.161 28.702 15.164 0 27.077-11.915 27.077-27.619 0-1.626-.217-2.925-.326-3.899l-.217-1.517H-28.16c1.191-7.69 6.931-12.996 14.622-12.996 6.39 0 10.289 3.681 11.372 5.957z" style="fill:#06f;fill-opacity:1;fill-rule:nonzero;stroke:none" transform="translate(943.2246 592.0508)"/>
    <path d="M964.88 635.374h13.537v-75.815H964.88Z" style="fill:#06f;fill-opacity:1;fill-rule:nonzero;stroke:none"/>
    <path d="M0 0c-1.191 7.041-5.849 12.457-13.539 12.457-8.231 0-12.996-5.416-14.621-12.457Zm11.914-16.245c-1.192-4.333-8.015-17.329-25.453-17.329-16.245 0-28.158 11.913-28.158 28.701 0 16.787 11.913 28.702 28.158 28.702 15.163 0 27.078-11.915 27.078-27.619 0-1.626-.217-2.925-.326-3.899l-.217-1.517H-28.16c1.191-7.69 6.931-12.996 14.621-12.996 6.391 0 10.29 3.681 11.373 5.957z" style="fill:#06f;fill-opacity:1;fill-rule:nonzero;stroke:none" transform="translate(1028.2295 592.0508)"/>
    <path d="M0 0h-9.206v12.996H0v8.124c0 8.231 5.308 13.539 13.538 13.539h11.914V22.743h-8.123c-2.167 0-3.791-1.623-3.791-3.79v-5.957h11.914V0H13.538v-42.24H0Z" style="fill:#06f;fill-opacity:1;fill-rule:nonzero;stroke:none" transform="translate(1054.2178 601.7993)"/>
    <path d="M0 0c0 9.747-6.498 16.245-14.621 16.245-8.123 0-14.621-6.498-14.621-16.245 0-9.749 6.498-16.247 14.621-16.247C-6.498-16.247 0-9.749 0 0m13.539 0c0-16.788-11.913-28.702-28.16-28.702-16.245 0-28.16 11.914-28.16 28.702 0 16.786 11.915 28.701 28.16 28.701 16.247 0 28.16-11.915 28.16-28.701" style="fill:#06f;fill-opacity:1;fill-rule:nonzero;stroke:none" transform="translate(1124.4766 587.1782)"/>
    <path d="M0 0h12.456l1.082-5.416h.542c.975 1.192 2.275 2.275 3.683 3.249 2.49 1.626 6.282 3.251 11.481 3.251 12.454 0 21.66-9.207 21.66-23.287v-33.033H37.365v31.95c0 7.041-4.872 11.914-11.913 11.914-7.039 0-11.914-4.873-11.914-11.914v-31.95H0Z" style="fill:#06f;fill-opacity:1;fill-rule:nonzero;stroke:none" transform="translate(1146.1309 614.7954)"/>
    <path d="M0 0c-1.732-8.665-8.555-21.661-25.993-21.661-16.245 0-28.159 11.914-28.159 28.702 0 16.786 11.914 28.701 28.159 28.701 17.438 0 24.261-12.997 25.993-21.12h-13.537c-1.192 3.141-4.333 8.664-12.456 8.664s-14.622-6.498-14.622-16.245c0-9.749 6.499-16.247 14.622-16.247 8.123 0 11.264 5.416 12.456 9.206z" style="fill:#06f;fill-opacity:1;fill-rule:nonzero;stroke:none" transform="translate(1283.2051 580.1372)"/>
    <path d="M0 0h-11.373c-7.04 0-10.29-2.708-10.29-7.039 0-4.333 3.142-7.041 8.665-7.041C-4.767-14.08 0-9.313 0-1.624Zm1.082-18.412H.541c-.975-1.192-2.274-2.274-3.79-3.249-2.601-1.625-6.391-3.249-11.915-3.249-12.564 0-20.036 7.69-20.036 16.787 0 10.831 7.581 18.413 22.743 18.413H0v1.083c0 6.065-3.683 10.289-9.749 10.289-6.064 0-9.206-3.899-9.747-7.04h-13.539c1.191 9.098 8.556 17.871 23.286 17.871 14.08 0 23.286-9.315 23.286-21.12v-35.2H2.165Z" style="fill:#06f;fill-opacity:1;fill-rule:nonzero;stroke:none" transform="translate(1323.0586 583.3862)"/>
    <path d="M1207.399 614.795h13.539v-55.236h-13.539z" style="fill:#06f;fill-opacity:1;fill-rule:nonzero;stroke:none"/>
    <path d="M0 0c0 4.425-3.588 8.013-8.013 8.013S-16.025 4.425-16.025 0s3.587-8.013 8.012-8.013C-3.588-8.013 0-4.425 0 0" style="fill:#06f;fill-opacity:1;fill-rule:nonzero;stroke:none" transform="translate(1222.1816 630.7471)"/>
    <path d="M0 0h14.082L1.083-15.704h-11.372z" style="fill:#06f;fill-opacity:1;fill-rule:nonzero;stroke:none" transform="translate(1114.7295 638.0815)"/>
    <path d="M0 0h-22.752v13.544h59.586V0H14.085v-62.294H0Z" style="fill:#06f;fill-opacity:1;fill-rule:nonzero;stroke:none" transform="translate(870.79 515.6396)"/>
    <path d="M0 0c-1.19 7.039-5.849 12.459-13.54 12.459-8.233 0-13.001-5.42-14.628-12.459zm11.92-16.252c-1.193-4.334-8.019-17.335-25.46-17.335-16.251 0-28.168 11.919-28.168 28.71 0 16.793 11.917 28.71 28.168 28.71 15.167 0 27.084-11.917 27.084-27.626 0-1.626-.216-2.926-.324-3.901l-.219-1.515h-41.169c1.193-7.693 6.934-13.001 14.628-13.001 6.392 0 10.29 3.684 11.374 5.958z" style="fill:#06f;fill-opacity:1;fill-rule:nonzero;stroke:none" transform="translate(943.2676 485.8486)"/>
    <path d="M0 0c-1.732-8.666-8.557-21.667-25.999-21.667-16.251 0-28.168 11.919-28.168 28.71 0 16.793 11.917 28.71 28.168 28.71C-8.557 35.753-1.732 22.752 0 14.628h-13.54c-1.193 3.141-4.335 8.666-12.459 8.666-8.127 0-14.627-6.5-14.627-16.251 0-9.751 6.5-16.252 14.627-16.252 8.124 0 11.266 5.42 12.459 9.209z" style="fill:#06f;fill-opacity:1;fill-rule:nonzero;stroke:none" transform="translate(1016.6143 473.9287)"/>
    <path d="M0 0h13.541v-26.003h.542c.976 1.194 2.274 2.275 3.684 3.251 2.492 1.626 6.285 3.25 11.483 3.25 12.459 0 21.667-9.209 21.667-23.291v-33.045h-13.54v31.96c0 7.043-4.877 11.917-11.917 11.917-7.042 0-11.919-4.874-11.919-11.917v-31.96H0Z" style="fill:#06f;fill-opacity:1;fill-rule:nonzero;stroke:none" transform="translate(1024.1992 529.1836)"/>
  </g>
</svg>
